# File created by Blade
# Date/Time:  Thu Jan 22 18:25:10 2015
# Frame Rate: 120.000 fps
#------------------------------------------------------
:FULLY-SPECIFIED
:DEGREES
3109
root -2.910608 33.054768 -0.185850 7.914895 -2.677501 2.621053
RightUpLeg -1.221463 -4.406831 -2.004515
RightLeg -0.070135 -0.000000 0.000000
RightFoot -12.455636 -3.467017 3.437214
RightToeBase 6.015948 -0.000000 -0.000000
LeftUpLeg -0.899926 4.957760 0.643177
LeftLeg 0.833489 -0.000000 -0.000000
LeftFoot -11.365119 1.772095 -9.474536
LeftToeBase 8.696665 -0.000000 -0.000000
Spine -14.638965 -10.920178 -3.322553
RightShoulder 6.595635 3.589160 -18.932767
RightArm 60.023199 -37.539816 70.909653
RightForeArm 42.468112 -0.000000 109.457639
RightHand 20.264513 -0.000000 22.594969
RightHandThumb1 -24.326973 -0.000000 -32.862282
LeftShoulder 0.442015 -44.774421 34.951407
LeftArm 75.986272 44.866705 -82.963847
LeftForeArm 23.402145 -0.000000 116.543136
LeftHand 0.256297 -0.000000 -31.080012
LeftHandThumb1 -26.253704 0.000000 33.147579
Head -1.148179 12.879774 6.266111
3110
root -2.909502 33.054941 -0.187555 7.907332 -2.690433 2.617844
RightUpLeg -1.226787 -4.399564 -2.005366
RightLeg -0.052969 -0.000000 0.000000
RightFoot -12.458599 -3.457405 3.453006
RightToeBase 6.043118 -0.000000 -0.000000
LeftUpLeg -0.896103 4.957542 0.642326
LeftLeg 0.839440 -0.000000 -0.000000
LeftFoot -11.393471 1.811680 -9.404908
LeftToeBase 8.845366 -0.000000 -0.000000
Spine -14.624772 -10.917786 -3.301997
RightShoulder 6.586935 3.592033 -18.928809
RightArm 60.012012 -37.534478 70.928597
RightForeArm 42.453356 -0.000000 109.474511
RightHand 20.264001 -0.000000 22.531423
RightHandThumb1 -24.326973 -0.000000 -32.862282
LeftShoulder 0.470004 -44.806310 34.968539
LeftArm 76.004861 44.860886 -82.930808
LeftForeArm 23.406398 -0.000000 116.562102
LeftHand 0.162430 -0.000000 -31.051524
LeftHandThumb1 -26.253704 0.000000 33.147579
Head -1.158307 12.883273 6.205060
3111
root -2.908622 33.055467 -0.189992 7.902867 -2.698381 2.613481
RightUpLeg -1.235528 -4.384349 -2.004005
RightLeg -0.039059 -0.000000 0.000000
RightFoot -12.455472 -3.471000 3.424564
RightToeBase 6.036491 -0.000000 -0.000000
LeftUpLeg -0.900959 4.949329 0.643311
LeftLeg 0.852394 -0.000000 -0.000000
LeftFoot -11.399574 1.832841 -9.406275
LeftToeBase 8.819622 -0.000000 -0.000000
Spine -14.609597 -10.927181 -3.280596
RightShoulder 6.578694 3.609274 -18.916725
RightArm 59.993002 -37.531122 70.950109
RightForeArm 42.459389 -0.000000 109.490521
RightHand 20.280810 -0.000000 22.483824
RightHandThumb1 -24.326973 -0.000000 -32.862282
LeftShoulder 0.483286 -44.852922 34.992490
LeftArm 76.009921 44.863273 -82.910764
LeftForeArm 23.402853 -0.000000 116.553055
LeftHand 0.121671 -0.000000 -31.004144
LeftHandThumb1 -26.253704 0.000000 33.147579
Head -1.173681 12.893529 6.147663
3112
root -2.907619 33.055949 -0.191970 7.889234 -2.693637 2.610414
RightUpLeg -1.229518 -4.382643 -2.003856
RightLeg -0.030223 -0.000000 0.000000
RightFoot -12.448586 -3.464838 3.437112
RightToeBase 5.990772 -0.000000 -0.000000
LeftUpLeg -0.901832 4.961519 0.646364
LeftLeg 0.873805 -0.000000 -0.000000
LeftFoot -11.403289 1.814179 -9.395589
LeftToeBase 8.789954 -0.000000 -0.000000
Spine -14.586185 -10.954165 -3.252561
RightShoulder 6.581366 3.605641 -18.916721
RightArm 59.992612 -37.516190 70.969083
RightForeArm 42.442709 -0.000000 109.500452
RightHand 20.273028 -0.000000 22.463811
RightHandThumb1 -24.326973 -0.000000 -32.862282
LeftShoulder 0.501385 -44.918236 35.001318
LeftArm 75.978490 44.865821 -82.912882
LeftForeArm 23.411195 0.000000 116.544243
LeftHand 0.127336 -0.000000 -30.966298
LeftHandThumb1 -26.253704 0.000000 33.147579
Head -1.185416 12.900965 6.082618
3113
root -2.906158 33.056036 -0.194410 7.873915 -2.696145 2.612164
RightUpLeg -1.225815 -4.378260 -2.008774
RightLeg -0.016474 -0.000000 0.000000
RightFoot -12.462712 -3.465025 3.458857
RightToeBase 6.026089 -0.000000 -0.000000
LeftUpLeg -0.893097 4.964938 0.639248
LeftLeg 0.880120 -0.000000 -0.000000
LeftFoot -11.420096 1.830599 -9.439702
LeftToeBase 8.875550 -0.000000 -0.000000
Spine -14.563685 -10.982962 -3.229521
RightShoulder 6.594375 3.624337 -18.917555
RightArm 59.962243 -37.496532 71.010754
RightForeArm 42.423827 -0.000000 109.510277
RightHand 20.260158 -0.000000 22.451911
RightHandThumb1 -24.326973 -0.000000 -32.862282
LeftShoulder 0.509451 -44.933515 35.010232
LeftArm 76.017408 44.856931 -82.858206
LeftForeArm 23.377672 -0.000000 116.534331
LeftHand 0.093091 -0.000000 -30.962685
LeftHandThumb1 -26.253704 0.000000 33.147579
Head -1.185559 12.932310 6.010698
3114
root -2.905254 33.056639 -0.196997 7.868315 -2.688831 2.612216
RightUpLeg -1.229082 -4.381728 -2.009894
RightLeg -0.005091 -0.000000 0.000000
RightFoot -12.461561 -3.472607 3.457361
RightToeBase 6.051501 -0.000000 -0.000000
LeftUpLeg -0.900160 4.973130 0.639588
LeftLeg 0.895553 -0.000000 -0.000000
LeftFoot -11.395768 1.785144 -9.484038
LeftToeBase 8.739278 -0.000000 -0.000000
Spine -14.550660 -11.006514 -3.208011
RightShoulder 6.582273 3.607362 -18.923790
RightArm 59.962708 -37.470529 71.034264
RightForeArm 42.417601 0.000000 109.515606
RightHand 20.215780 -0.000000 22.500404
RightHandThumb1 -24.326973 -0.000000 -32.862282
LeftShoulder 0.524620 -44.977261 35.024458
LeftArm 76.024579 44.852274 -82.820993
LeftForeArm 23.378701 -0.000000 116.524583
LeftHand 0.114156 -0.000000 -30.932048
LeftHandThumb1 -26.253704 0.000000 33.147579
Head -1.190813 12.934346 5.948039
3115
root -2.904194 33.057438 -0.199470 7.860798 -2.678561 2.612395
RightUpLeg -1.229054 -4.394135 -2.010114
RightLeg 0.004864 -0.000000 -0.000000
RightFoot -12.459726 -3.470511 3.450831
RightToeBase 6.059430 -0.000000 -0.000000
LeftUpLeg -0.903624 4.986188 0.640750
LeftLeg 0.900859 -0.000000 -0.000000
LeftFoot -11.394382 1.784819 -9.368359
LeftToeBase 8.798476 -0.000000 -0.000000
Spine -14.535472 -11.049362 -3.183241
RightShoulder 6.578324 3.627196 -18.924812
RightArm 59.934534 -37.463601 71.064986
RightForeArm 42.395060 -0.000000 109.525419
RightHand 20.163519 0.000000 22.512524
RightHandThumb1 -24.326973 -0.000000 -32.862282
LeftShoulder 0.528802 -45.027065 35.051618
LeftArm 76.008136 44.848841 -82.800323
LeftForeArm 23.394679 -0.000000 116.523481
LeftHand 0.107918 -0.000000 -30.916715
LeftHandThumb1 -26.253704 0.000000 33.147579
Head -1.192557 12.955155 5.900974
3116
root -2.903220 33.057751 -0.201497 7.857805 -2.673179 2.613044
RightUpLeg -1.231298 -4.395973 -2.013354
RightLeg 0.010714 -0.000000 -0.000000
RightFoot -12.460361 -3.462928 3.483401
RightToeBase 6.041370 -0.000000 -0.000000
LeftUpLeg -0.906901 4.992806 0.639990
LeftLeg 0.906486 -0.000000 -0.000000
LeftFoot -11.392669 1.769740 -9.375149
LeftToeBase 8.830910 -0.000000 -0.000000
Spine -14.533444 -11.089655 -3.156099
RightShoulder 6.583886 3.636067 -18.936487
RightArm 59.919988 -37.454724 71.090981
RightForeArm 42.362115 0.000000 109.514648
RightHand 20.170368 -0.000000 22.558246
RightHandThumb1 -24.326973 -0.000000 -32.862282
LeftShoulder 0.529075 -45.035130 35.081717
LeftArm 76.032801 44.837947 -82.752365
LeftForeArm 23.370486 0.000000 116.525028
LeftHand 0.095577 0.000000 -30.896598
LeftHandThumb1 -26.253704 0.000000 33.147579
Head -1.176252 12.994121 5.847738
3117
root -2.902284 33.057900 -0.204394 7.847714 -2.655911 2.611698
RightUpLeg -1.224821 -4.411228 -2.011013
RightLeg 0.013598 -0.000000 -0.000000
RightFoot -12.463008 -3.466063 3.460193
RightToeBase 6.016390 -0.000000 -0.000000
LeftUpLeg -0.908927 4.995534 0.639624
LeftLeg 0.917501 -0.000000 -0.000000
LeftFoot -11.385158 1.737364 -9.457766
LeftToeBase 8.743388 -0.000000 -0.000000
Spine -14.518578 -11.122940 -3.131932
RightShoulder 6.574587 3.617544 -18.950760
RightArm 59.933512 -37.434110 71.088922
RightForeArm 42.362093 -0.000000 109.503946
RightHand 20.181715 -0.000000 22.567989
RightHandThumb1 -24.326973 -0.000000 -32.862282
LeftShoulder 0.558861 -45.063385 35.085180
LeftArm 76.027992 44.829584 -82.726154
LeftForeArm 23.343587 -0.000000 116.530545
LeftHand 0.079273 -0.000000 -30.908678
LeftHandThumb1 -26.253704 0.000000 33.147579
Head -1.167423 12.991193 5.796950
